PathFileType	4	(X/Y/Z)	C:/Users/beibeiliu/ov580/test_trc/User2\sequence.24_training_dense_left.trc
DataRate	CameraRate	NumFrames	NumMarkers	Units	OrigDataRate	OrigDataStartFrame	OrigNumFrames
120	120	19	19	mm	120	1	81
Frame#	Time	ThumbCMC			ThumbMCP			ThumbIP			ThumbTip			IndexMCP			IndexPIP			IndexTip			MiddleMCP			MiddlePIP			MiddleTip			RingMCP			RingPIP			RingTip			PinkyMCP			PinkyPIP			PinkyTip			BackHand1			BackHand2			BackHand3	
		X0	Y0	Z0	X1	Y1	Z1	X2	Y2	Z2	X3	Y3	Z3	X4	Y4	Z4	X5	Y5	Z5	X6	Y6	Z6	X7	Y7	Z7	X8	Y8	Z8	X9	Y9	Z9	X10	Y10	Z10	X11	Y11	Z11	X12	Y12	Z12	X13	Y13	Z13	X14	Y14	Z14	X15	Y15	Z15	X16	Y16	Z16	X17	Y17	Z17	X18	Y18	Z18	
0	0	-200.5	43.1265	5.07249	-169.647	28.9982	-8.90648	-143.048	14.4944	-29.5671	-129.013	-6.30074	-46.1011	-201.003	5.79819	-71.1678	-178.935	-8.78788	-86.8501	-149.68	-29.672	-89.8206	-210.133	-13.7146	-74.6708	-185.061	-33.8471	-91.5126	-154.316	-53.1917	-88.1552	-217.058	-34.1977	-65.8134	-198.343	-50.0925	-78.4901	-168.115	-63.7665	-78.1624	-226.249	-52.9304	-42.5211	-206.509	-67.4873	-54.1761	-177.771	-74.6302	-60.3515	-250.888	-7.14669	-21.0161	-264.75	6.90346	12.1663	-242.213	30.0595	-12.8474	
1	0.00833333	-222.603	56.472	1.20071	-189.574	54.0023	-14.0345	-164.349	41.5697	-32.597	-142.747	28.0874	-48.5333	-213.383	18.0372	-72.7459	-186.548	7.14707	-89.0694	-154.831	-2.73166	-89.6262	-214.741	-2.26284	-76.532	-188.501	-13.263	-90.6326	-150.713	-23.1586	-85.4168	-219.406	-26.9745	-62.3178	-193.433	-32.6101	-76.9041	-155.49	-35.6477	-73.9925	-221.16	-38.2292	-38.405	-190.913	-50.578	-54.6664	-165.981	-49.7455	-57.4662	-256.738	-6.48913	-15.6339	-272.742	5.76447	9.91426	-257.396	33.3889	-14.9651	
2	0.0166667	-247.765	67.3428	-1.81252	-217.697	74.4221	-18.0988	-185.748	70.018	-43.0485	-167.259	61.5839	-52.1941	-225.302	30.8065	-79.3163	-201.259	24.2041	-90.8434	-170.302	28.022	-95.3678	-224.313	5.04345	-74.4286	-192.155	3.68008	-91.0428	-156.579	10.484	-86.575	-220.036	-11.172	-61.7216	-186.605	-13.0449	-76.1233	-155.533	-2.77783	-69.9377	-214.959	-27.2551	-38.1084	-184.216	-28.3448	-51.9973	-160.005	-14.9976	-53.6126	-259.219	-5.93972	-15.2093	-275.842	4.24196	10.9903	-273.212	31.5551	-13.4599	
3	0.025	-270.992	69.1074	-13.3838	-245.846	80.2615	-30.2041	-218.611	83.6522	-53.6268	-197.593	80.4346	-65.6486	-244.035	28.0836	-81.9269	-218.808	32.4294	-101.287	-191.366	37.3778	-101.069	-236.616	8.22832	-76.379	-202.088	12.941	-95.4957	-170.857	30.1253	-89.8105	-223.072	-5.61902	-65.3454	-193.015	0.717447	-78.2749	-171.417	21.8217	-75.1089	-216.84	-12.9946	-39.4356	-188.223	-7.21157	-57.919	-166.369	12.612	-58.7541	-259.894	-5.46509	-16.8959	-276.388	-2.72322	13.1558	-285.267	25.3404	-17.2828	
4	0.0333333	-290.257	59.0271	-12.9173	-271.12	75.0947	-41.5231	-250.059	83.6838	-67.4608	-227.534	78.8636	-84.3292	-268.7	18.5761	-84.3819	-246.24	20.9423	-105.273	-219.491	36.9403	-114.709	-250.803	0.314171	-84.7458	-221.139	12.7371	-103.545	-196.99	34.903	-101.595	-231.213	-10.0155	-65.5214	-207.58	5.79509	-86.1141	-190.1	34.4386	-79.8865	-219.044	-13.5842	-43.9353	-201.337	0.728918	-64.8686	-184.607	27.2285	-67.2847	-266.057	-11.2141	-15.2345	-281.989	-3.4357	12.2058	-295.138	15.4789	-15.4723	
5	0.0416667	-306.108	47.6161	-19.5428	-293.237	62.4128	-46.7807	-274.523	66.0804	-78.6166	-254.73	63.1532	-97.0224	-291.925	3.20441	-84.4857	-265.935	4.24334	-108.874	-246.32	21.9172	-121.069	-268.735	-15.1324	-83.5071	-246.74	-3.60036	-108.659	-221.403	23.8709	-108.745	-248.867	-20.5915	-69.5882	-227.342	-4.7218	-91.8935	-214.732	24.1096	-89.6454	-236.33	-20.6593	-50.165	-220.138	-7.54228	-72.2056	-207.75	22.0732	-74.9157	-280.342	-16.3722	-13.0267	-288.315	-10.3536	16.1666	-310.91	7.38682	-13.5569	
6	0.05	-321.305	39.2463	-21.9623	-310.723	51.5197	-53.0827	-294.451	52.5993	-80.7895	-277.392	43.9201	-101.722	-308.395	-15.4232	-86.0659	-295.249	-13.0718	-110.165	-269.236	1.88379	-124.068	-290.917	-31.7564	-84.5455	-273.844	-23.4382	-111.4	-246.406	6.35165	-118.548	-275.369	-34.0246	-72.2044	-253.916	-24.5412	-97.0903	-239.13	10.3408	-99.8316	-253.672	-36.9756	-53.9389	-237.442	-21.8586	-81.2412	-228.776	5.5607	-84.8725	-294.575	-24.7298	-13.5933	-298.666	-18.8484	18.2421	-323.42	-4.44026	-9.51598	
7	0.0583333	-327.811	34.649	-19.2504	-317.542	43.7421	-52.9308	-305.665	39.5407	-89.8159	-290.725	28.4058	-109.397	-331.897	-24.1831	-86.0779	-315.263	-24.7409	-115.134	-289.786	-16.4869	-126.905	-317.587	-42.6215	-86.135	-298.533	-39.9491	-113.746	-268.468	-12.8986	-124.791	-300.368	-50.208	-75.1523	-277.019	-46.8513	-99.7385	-257.672	-19.6976	-105.201	-279.162	-57.7194	-59.044	-264.066	-48.4402	-83.7432	-247.64	-18.8431	-91.0641	-310.511	-39.3528	-12.9221	-314.27	-28.2755	15.3379	-339.752	-7.86201	-11.1535	
8	0.0666667	-326.425	30.8703	-23.6667	-314.645	35.9184	-56.092	-303.927	30.2299	-87.3681	-293.35	13.3884	-110.259	-347.23	-22.51	-85.3315	-330.83	-30.1179	-116.814	-302.285	-21.4641	-131.925	-338.559	-43.8876	-84.2769	-315.123	-49.5548	-116.577	-283.752	-34.2133	-126.625	-321.036	-59.6364	-76.6554	-300.362	-61.0919	-101.164	-273.866	-37.0771	-109.849	-303.736	-68.7857	-54.6428	-288.214	-66.8169	-83.7797	-264.332	-45.5	-94.2392	-329.722	-41.6389	-16.4254	-328.489	-30.6668	16.8608	-346.2	-6.20133	-11.9012	
9	0.075	-328.928	33.047	-21.3548	-316.407	41.7444	-57.0628	-305.952	36.6015	-88.2275	-295.904	15.7261	-105.986	-357.244	-15.7831	-86.6713	-346.342	-28.1545	-112.363	-316.458	-28.0985	-130.59	-353.164	-38.6288	-86.2107	-335.358	-46.3593	-117.039	-300.506	-40.6193	-128.089	-339.943	-54.5453	-77.3986	-321.285	-64.5727	-99.9898	-290.735	-48.1127	-111.387	-323.702	-63.5494	-53.5073	-305.996	-70.2503	-84.1612	-283.153	-54.6658	-95.1664	-342.642	-39.4006	-14.4964	-342.908	-27.435	13.3932	-354.834	1.46587	-12.0355	
10	0.0833333	-331.082	44.3935	-19.2806	-318.035	48.1147	-51.1472	-309.992	38.9588	-84.8632	-305.764	20.0323	-106.895	-369.624	0.999307	-81.9647	-364.212	-8.42527	-110.283	-336.809	-19.3075	-129.919	-373.78	-20.5556	-82.517	-361.949	-30.6454	-112.417	-327.388	-37.6819	-126.814	-363.44	-42.389	-69.2255	-353.03	-50.6045	-97.8662	-319.778	-44.1941	-114.191	-349.684	-49.4538	-50.7153	-339.808	-58.1691	-83.2442	-314.031	-51.734	-96.6566	-359.612	-24.0795	-10.6496	-356.227	-12.9153	15.6177	-363.092	15.7969	-8.06248	
11	0.0916667	-311.146	42.7389	-9.71836	-297.24	44.3552	-45.4187	-296.68	34.3959	-79.5726	-304.15	15.9933	-99.1616	-369.539	35.6972	-74.4408	-372.767	25.5096	-104.535	-361.772	7.27331	-124.625	-384.25	18.4694	-70.8529	-385.78	3.75725	-106.184	-360.056	-16.986	-127.978	-386.307	-4.79536	-59.8409	-385.948	-12.7261	-91.1449	-363.147	-28.2113	-111.719	-379.068	-18.9724	-49.1876	-377.078	-27.5257	-75.8876	-355.563	-39.7687	-98.0424	-373.129	3.47923	-5.38223	-363.096	8.22862	25.0494	-351.208	39.6594	-3.5823	
12	0.1	-294.254	38.6206	-10.6319	-283.555	31.4252	-41.6348	-282.405	24.6422	-77.9926	-294.903	13.5254	-100.813	-349.398	59.0994	-70.1773	-356.894	55.9361	-99.2738	-357.574	37.7676	-121.997	-370.971	50.0556	-66.1516	-382.55	40.1371	-100.547	-376.082	16.7188	-124.879	-384.196	27.7935	-54.1505	-387.971	24.5183	-87.8573	-377.719	4.15424	-111.5	-382.273	6.27695	-40.0069	-387.883	3.30705	-69.8507	-377.52	-9.40715	-99.1713	-360.328	26.9869	-4.94004	-349.04	26.0292	29.2996	-329.957	48.3727	2.71409	
13	0.108333	-270.996	33.5203	-7.25088	-261.456	28.351	-43.7526	-265.708	22.8308	-78.7943	-281.025	14.1578	-101.309	-323.238	70.4645	-63.1355	-330.865	75.3953	-92.7354	-334.792	58.8561	-124.065	-348.123	70.9409	-62.7279	-358.78	70.1988	-96.8445	-359.767	51.2271	-124.872	-362.206	53.2785	-54.3078	-370.733	53.6988	-81.4341	-366.176	38.1889	-111.438	-366.589	31.7172	-43.6186	-376.04	29.3664	-74.229	-371.127	22.0516	-99.8864	-342.453	39.0352	-4.61409	-333.063	36.2562	27.6386	-307.215	54.4103	6.88538	
14	0.116667	-250.638	30.2319	-6.94416	-240.648	22.9898	-39.4767	-242.903	19.7331	-76.3385	-260.603	16.3128	-99.0161	-295.216	79.1283	-63.6991	-300.683	84.6859	-92.0702	-303.534	72.0709	-122.434	-316.241	81.127	-58.6416	-326.338	88.5477	-93.4733	-331.148	69.3645	-128.728	-334.627	67.2298	-53.5287	-342.373	73.2854	-83.5567	-338.124	61.6457	-112.169	-348.677	44.9459	-45.0544	-354.094	50.1545	-71.2992	-351.634	45.6376	-104.57	-325.023	44.4058	-2.37034	-313.759	37.1083	24.3356	-287.062	54.1693	5.38062	
15	0.125	-231.903	20.6807	-6.20117	-222.4	14.7109	-40.0884	-223.746	13.8384	-78.2394	-236.908	8.90204	-99.0145	-264.272	75.2746	-62.9151	-265.983	82.2229	-93.8641	-273.857	68.6192	-125.743	-290.959	79.1939	-58.1206	-294.57	89.5415	-97.3752	-298.624	74.8314	-128.087	-309.106	67.4385	-53.2152	-311.696	76.7873	-83.1076	-310.33	65.5067	-114.831	-325.357	46.7087	-46.3354	-325.996	55.5942	-74.4349	-321.849	53.318	-104.57	-301.914	43.6535	-7.86643	-295.545	33.9631	23.5255	-264.289	51.3468	3.73949	
16	0.133333	-211.559	7.19615	-2.32454	-200.163	-0.264414	-39.2033	-200.855	-5.30981	-71.4917	-215.069	-6.68774	-98.0293	-239.268	58.2039	-64.1637	-241.909	61.4971	-99.2122	-243.909	48.7874	-126.191	-266.58	63.0852	-62.4187	-270.492	71.3204	-100.713	-271.216	54.3246	-131.96	-281.926	55.1743	-59.3367	-288.331	62.0994	-90.6444	-283.675	46.6978	-122.681	-301.3	35.67	-50.6626	-303.299	42.5653	-77.743	-298.482	36.665	-105.803	-281.199	32.2539	-6.0747	-275.962	27.7357	20.8782	-245.437	39.5465	2.14574	
17	0.141667	-193.909	-2.29295	0.964343	-182.579	-17.6639	-26.084	-179.288	-28.1004	-60.1729	-187.871	-35.4306	-87.7479	-216.984	35.4348	-68.4254	-220.671	31.1035	-103.652	-220.858	12.3821	-126.623	-246.282	41.6141	-73.7939	-246.57	38.626	-107.931	-248.306	10.2901	-137.201	-267.211	32.6418	-65.613	-269.68	32.3188	-95.5202	-258.757	9.5852	-122.255	-281.743	14.2046	-50.7195	-285.712	14.8115	-84.5007	-279.415	2.63861	-105.829	-263.095	22.12	-10.6518	-262.737	19.8789	19.4121	-230.537	28.1439	1.97709	
18	0.15	-182.835	-3.70729	7.45209	-170.596	-24.4147	-11.7979	-161.125	-44.9183	-45.1202	-167.864	-58.956	-63.7202	-206.035	5.77712	-69.2893	-203.454	-7.78865	-100.373	-204.574	-35.5453	-116.835	-232.439	7.08268	-75.266	-233.259	-12.9396	-110.903	-229.694	-41.543	-124.26	-254.119	-1.5139	-66.4768	-255.402	-16.3975	-97.5584	-241.967	-46.6292	-112.835	-269.509	-15.1166	-48.8444	-266.973	-26.5078	-80.436	-258.222	-44.6906	-95.6253	-252.101	8.48917	-9.83896	-254.473	17.2204	20.6813	-222.126	19.4268	0.884946	
